# xmcd
#
# Track frame offsets:
# 150
# 26932
# 43009
# 66257
# 90996
# 113622
# 133397
# 158885
# 174144
# 186988
# 200024
#
# Disc length: 2937 seconds
#
# Revision: 1
# Processed by: cddbd v1.5.2PL0 Copyright (c) Steve Scherf et al.
# Submitted via: CedeCatalogueitor 2.6.0.6 http://personales.ya.com/cdcatalogueitor
#
DISCID=980b770b
DTITLE=Susana Baca - Travesías
DYEAR=1900
DGENRE=
TTITLE0=Né Quelque Part
TTITLE1=Una Copla Me Ha Cantado
TTITLE2=Merci Bon Dieu
TTITLE3=Estrela
TTITLE4=Guillermina
TTITLE5=Viento Del Olvido
TTITLE6=Luna Rossa
TTITLE7=Palomita Ingrata
TTITLE8=Siempre
TTITLE9=Pensamiento
TTITLE10=Volcano
EXTD=
EXTT0=
EXTT1=
EXTT2=
EXTT3=
EXTT4=
EXTT5=
EXTT6=
EXTT7=
EXTT8=
EXTT9=
EXTT10=
PLAYORDER=
